
<svg width="4421px" height="3806px" viewBox="0 0 4421 3806" version="1.1" xmlns="http://www.w3.org/2000/svg" xmlns:xlink="http://www.w3.org/1999/xlink">
    <!-- Generator: Sketch 49.3 (51167) - http://www.bohemiancoding.com/sketch -->
    <desc>Created with Sketch.</desc>
    <defs>
        <rect id="path-1" x="736" y="3002" width="2574" height="83"></rect>
        <rect id="path-2" x="563" y="3085" width="3450" height="83"></rect>
        <rect id="path-3" x="663" y="3002" width="3250" height="83"></rect>
        <rect id="path-4" x="488" y="3168" width="3600" height="83"></rect>
        <rect id="path-5" x="82" y="127" width="275" height="1750" rx="6"></rect>
        <rect id="path-6" x="30" y="1827" width="380" height="100" rx="49"></rect>
        <rect id="path-7" x="30" y="50" width="380" height="100" rx="49"></rect>
        <rect id="path-8" x="0" y="0" width="440" height="100" rx="49"></rect>
        <rect id="path-9" x="0" y="1877" width="440" height="100" rx="49"></rect>
        <rect id="path-10" x="82" y="127" width="275" height="1750" rx="6"></rect>
        <rect id="path-11" x="30" y="1827" width="380" height="100" rx="49"></rect>
        <rect id="path-12" x="30" y="50" width="380" height="100" rx="49"></rect>
        <rect id="path-13" x="0" y="0" width="440" height="100" rx="49"></rect>
        <rect id="path-14" x="0" y="1877" width="440" height="100" rx="49"></rect>
        <rect id="path-15" x="82" y="127" width="275" height="1750" rx="6"></rect>
        <rect id="path-16" x="30" y="1827" width="380" height="100" rx="49"></rect>
        <rect id="path-17" x="30" y="50" width="380" height="100" rx="49"></rect>
        <rect id="path-18" x="0" y="0" width="440" height="100" rx="49"></rect>
        <rect id="path-19" x="0" y="1877" width="440" height="100" rx="49"></rect>
        <rect id="path-20" x="82" y="127" width="275" height="1750" rx="6"></rect>
        <rect id="path-21" x="30" y="1827" width="380" height="100" rx="49"></rect>
        <rect id="path-22" x="30" y="50" width="380" height="100" rx="49"></rect>
        <rect id="path-23" x="0" y="0" width="440" height="100" rx="49"></rect>
        <rect id="path-24" x="0" y="1877" width="440" height="100" rx="49"></rect>
        <rect id="path-25" x="82" y="127" width="275" height="1750" rx="6"></rect>
        <rect id="path-26" x="30" y="1827" width="380" height="100" rx="49"></rect>
        <rect id="path-27" x="30" y="50" width="380" height="100" rx="49"></rect>
        <rect id="path-28" x="0" y="0" width="440" height="100" rx="49"></rect>
        <rect id="path-29" x="0" y="1877" width="440" height="100" rx="49"></rect>
        <rect id="path-30" x="82" y="127" width="275" height="1750" rx="6"></rect>
        <rect id="path-31" x="30" y="1827" width="380" height="100" rx="49"></rect>
        <rect id="path-32" x="30" y="50" width="380" height="100" rx="49"></rect>
        <rect id="path-33" x="0" y="0" width="440" height="100" rx="49"></rect>
        <rect id="path-34" x="0" y="1877" width="440" height="100" rx="49"></rect>
        <path d="M3078,630 C3078,373.187591 2702.14305,165 2238.5,165 C1774.85695,165 1399,373.187591 1399,630" id="path-35"></path>
        <rect id="path-37" x="736" y="630" width="3052" height="400" rx="19"></rect>
        <rect id="path-39" x="632" y="931" width="3250" height="100" rx="9"></rect>
    </defs>
    <g id="Page-1" stroke="none" stroke-width="1" fill="none" fill-rule="evenodd">
        <g id="Artboard">
            <g id="Rectangle-6">
                <use fill="#F5F5DC" fill-rule="evenodd" xlink:href="#path-1"></use>
                <rect stroke="#979797" stroke-width="1" x="736.5" y="3002.5" width="2573" height="82"></rect>
            </g>
            <g id="Rectangle-6">
                <use fill="#F5F5DC" fill-rule="evenodd" xlink:href="#path-2"></use>
                <rect stroke="#9B9B89" stroke-width="2" x="564" y="3086" width="3448" height="81"></rect>
            </g>
            <g id="Rectangle-6">
                <use fill="#F5F5DC" fill-rule="evenodd" xlink:href="#path-3"></use>
                <rect stroke="#9B9B89" stroke-width="2" x="664" y="3003" width="3248" height="81"></rect>
            </g>
            <g id="Rectangle-6">
                <use fill="#F5F5DC" fill-rule="evenodd" xlink:href="#path-4"></use>
                <rect stroke="#9B9B89" stroke-width="2" x="489" y="3169" width="3598" height="81"></rect>
            </g>
            <g id="Column" transform="translate(818.000000, 1025.000000)">
                <g id="Rectangle">
                    <use fill="#F5F5DC" fill-rule="evenodd" xlink:href="#path-5"></use>
                    <rect stroke="#9B9B89" stroke-width="2" x="83" y="128" width="273" height="1748" rx="6"></rect>
                </g>
                <g id="Rectangle-2">
                    <use fill="#F5F5DC" fill-rule="evenodd" xlink:href="#path-6"></use>
                    <rect stroke="#9B9B89" stroke-width="2" x="31" y="1828" width="378" height="98" rx="49"></rect>
                </g>
                <g id="Rectangle-2">
                    <use fill="#F5F5DC" fill-rule="evenodd" xlink:href="#path-7"></use>
                    <rect stroke="#9B9B89" stroke-width="2" x="31" y="51" width="378" height="98" rx="49"></rect>
                </g>
                <g id="Rectangle-2">
                    <use fill="#F5F5DC" fill-rule="evenodd" xlink:href="#path-8"></use>
                    <rect stroke="#9B9B89" stroke-width="2" x="1" y="1" width="438" height="98" rx="49"></rect>
                </g>
                <g id="Rectangle-2">
                    <use fill="#F5F5DC" fill-rule="evenodd" xlink:href="#path-9"></use>
                    <rect stroke="#9B9B89" stroke-width="2" x="1" y="1878" width="438" height="98" rx="49"></rect>
                </g>
                <path d="M112,149 L112,1827" id="Line" stroke="#9B9B89" stroke-width="2" stroke-linecap="square"></path>
                <path d="M332,149 L332,1827" id="Line" stroke="#9B9B89" stroke-width="2" stroke-linecap="square"></path>
                <path d="M219.5,149 L219.5,1827" id="Line" stroke="#9B9B89" stroke-width="2" stroke-linecap="square"></path>
                <path d="M288.25,149 L288.25,1827" id="Line" stroke="#9B9B89" stroke-width="2" stroke-linecap="square"></path>
                <path d="M155.75,149 L155.75,1827" id="Line" stroke="#9B9B89" stroke-width="2" stroke-linecap="square"></path>
            </g>
            <g id="Column" transform="translate(1308.000000, 1025.000000)">
                <g id="Rectangle">
                    <use fill="#F5F5DC" fill-rule="evenodd" xlink:href="#path-10"></use>
                    <rect stroke="#9B9B89" stroke-width="2" x="83" y="128" width="273" height="1748" rx="6"></rect>
                </g>
                <g id="Rectangle-2">
                    <use fill="#F5F5DC" fill-rule="evenodd" xlink:href="#path-11"></use>
                    <rect stroke="#9B9B89" stroke-width="2" x="31" y="1828" width="378" height="98" rx="49"></rect>
                </g>
                <g id="Rectangle-2">
                    <use fill="#F5F5DC" fill-rule="evenodd" xlink:href="#path-12"></use>
                    <rect stroke="#9B9B89" stroke-width="2" x="31" y="51" width="378" height="98" rx="49"></rect>
                </g>
                <g id="Rectangle-2">
                    <use fill="#F5F5DC" fill-rule="evenodd" xlink:href="#path-13"></use>
                    <rect stroke="#9B9B89" stroke-width="2" x="1" y="1" width="438" height="98" rx="49"></rect>
                </g>
                <g id="Rectangle-2">
                    <use fill="#F5F5DC" fill-rule="evenodd" xlink:href="#path-14"></use>
                    <rect stroke="#9B9B89" stroke-width="2" x="1" y="1878" width="438" height="98" rx="49"></rect>
                </g>
                <path d="M112,149 L112,1827" id="Line" stroke="#9B9B89" stroke-width="2" stroke-linecap="square"></path>
                <path d="M332,149 L332,1827" id="Line" stroke="#9B9B89" stroke-width="2" stroke-linecap="square"></path>
                <path d="M219.5,149 L219.5,1827" id="Line" stroke="#9B9B89" stroke-width="2" stroke-linecap="square"></path>
                <path d="M288.25,149 L288.25,1827" id="Line" stroke="#9B9B89" stroke-width="2" stroke-linecap="square"></path>
                <path d="M155.75,149 L155.75,1827" id="Line" stroke="#9B9B89" stroke-width="2" stroke-linecap="square"></path>
            </g>
            <g id="Column" transform="translate(1798.000000, 1025.000000)">
                <g id="Rectangle">
                    <use fill="#F5F5DC" fill-rule="evenodd" xlink:href="#path-15"></use>
                    <rect stroke="#9B9B89" stroke-width="2" x="83" y="128" width="273" height="1748" rx="6"></rect>
                </g>
                <g id="Rectangle-2">
                    <use fill="#F5F5DC" fill-rule="evenodd" xlink:href="#path-16"></use>
                    <rect stroke="#9B9B89" stroke-width="2" x="31" y="1828" width="378" height="98" rx="49"></rect>
                </g>
                <g id="Rectangle-2">
                    <use fill="#F5F5DC" fill-rule="evenodd" xlink:href="#path-17"></use>
                    <rect stroke="#9B9B89" stroke-width="2" x="31" y="51" width="378" height="98" rx="49"></rect>
                </g>
                <g id="Rectangle-2">
                    <use fill="#F5F5DC" fill-rule="evenodd" xlink:href="#path-18"></use>
                    <rect stroke="#9B9B89" stroke-width="2" x="1" y="1" width="438" height="98" rx="49"></rect>
                </g>
                <g id="Rectangle-2">
                    <use fill="#F5F5DC" fill-rule="evenodd" xlink:href="#path-19"></use>
                    <rect stroke="#9B9B89" stroke-width="2" x="1" y="1878" width="438" height="98" rx="49"></rect>
                </g>
                <path d="M112,149 L112,1827" id="Line" stroke="#9B9B89" stroke-width="2" stroke-linecap="square"></path>
                <path d="M332,149 L332,1827" id="Line" stroke="#9B9B89" stroke-width="2" stroke-linecap="square"></path>
                <path d="M219.5,149 L219.5,1827" id="Line" stroke="#9B9B89" stroke-width="2" stroke-linecap="square"></path>
                <path d="M288.25,149 L288.25,1827" id="Line" stroke="#9B9B89" stroke-width="2" stroke-linecap="square"></path>
                <path d="M155.75,149 L155.75,1827" id="Line" stroke="#9B9B89" stroke-width="2" stroke-linecap="square"></path>
            </g>
            <g id="Column" transform="translate(2288.000000, 1025.000000)">
                <g id="Rectangle">
                    <use fill="#F5F5DC" fill-rule="evenodd" xlink:href="#path-20"></use>
                    <rect stroke="#9B9B89" stroke-width="2" x="83" y="128" width="273" height="1748" rx="6"></rect>
                </g>
                <g id="Rectangle-2">
                    <use fill="#F5F5DC" fill-rule="evenodd" xlink:href="#path-21"></use>
                    <rect stroke="#9B9B89" stroke-width="2" x="31" y="1828" width="378" height="98" rx="49"></rect>
                </g>
                <g id="Rectangle-2">
                    <use fill="#F5F5DC" fill-rule="evenodd" xlink:href="#path-22"></use>
                    <rect stroke="#9B9B89" stroke-width="2" x="31" y="51" width="378" height="98" rx="49"></rect>
                </g>
                <g id="Rectangle-2">
                    <use fill="#F5F5DC" fill-rule="evenodd" xlink:href="#path-23"></use>
                    <rect stroke="#9B9B89" stroke-width="2" x="1" y="1" width="438" height="98" rx="49"></rect>
                </g>
                <g id="Rectangle-2">
                    <use fill="#F5F5DC" fill-rule="evenodd" xlink:href="#path-24"></use>
                    <rect stroke="#9B9B89" stroke-width="2" x="1" y="1878" width="438" height="98" rx="49"></rect>
                </g>
                <path d="M112,149 L112,1827" id="Line" stroke="#9B9B89" stroke-width="2" stroke-linecap="square"></path>
                <path d="M332,149 L332,1827" id="Line" stroke="#9B9B89" stroke-width="2" stroke-linecap="square"></path>
                <path d="M219.5,149 L219.5,1827" id="Line" stroke="#9B9B89" stroke-width="2" stroke-linecap="square"></path>
                <path d="M288.25,149 L288.25,1827" id="Line" stroke="#9B9B89" stroke-width="2" stroke-linecap="square"></path>
                <path d="M155.75,149 L155.75,1827" id="Line" stroke="#9B9B89" stroke-width="2" stroke-linecap="square"></path>
            </g>
            <g id="Column" transform="translate(2778.000000, 1025.000000)">
                <g id="Rectangle">
                    <use fill="#F5F5DC" fill-rule="evenodd" xlink:href="#path-25"></use>
                    <rect stroke="#9B9B89" stroke-width="2" x="83" y="128" width="273" height="1748" rx="6"></rect>
                </g>
                <g id="Rectangle-2">
                    <use fill="#F5F5DC" fill-rule="evenodd" xlink:href="#path-26"></use>
                    <rect stroke="#9B9B89" stroke-width="2" x="31" y="1828" width="378" height="98" rx="49"></rect>
                </g>
                <g id="Rectangle-2">
                    <use fill="#F5F5DC" fill-rule="evenodd" xlink:href="#path-27"></use>
                    <rect stroke="#9B9B89" stroke-width="2" x="31" y="51" width="378" height="98" rx="49"></rect>
                </g>
                <g id="Rectangle-2">
                    <use fill="#F5F5DC" fill-rule="evenodd" xlink:href="#path-28"></use>
                    <rect stroke="#9B9B89" stroke-width="2" x="1" y="1" width="438" height="98" rx="49"></rect>
                </g>
                <g id="Rectangle-2">
                    <use fill="#F5F5DC" fill-rule="evenodd" xlink:href="#path-29"></use>
                    <rect stroke="#9B9B89" stroke-width="2" x="1" y="1878" width="438" height="98" rx="49"></rect>
                </g>
                <path d="M112,149 L112,1827" id="Line" stroke="#9B9B89" stroke-width="2" stroke-linecap="square"></path>
                <path d="M332,149 L332,1827" id="Line" stroke="#9B9B89" stroke-width="2" stroke-linecap="square"></path>
                <path d="M219.5,149 L219.5,1827" id="Line" stroke="#9B9B89" stroke-width="2" stroke-linecap="square"></path>
                <path d="M288.25,149 L288.25,1827" id="Line" stroke="#9B9B89" stroke-width="2" stroke-linecap="square"></path>
                <path d="M155.75,149 L155.75,1827" id="Line" stroke="#9B9B89" stroke-width="2" stroke-linecap="square"></path>
            </g>
            <g id="Column" transform="translate(3268.000000, 1025.000000)">
                <g id="Rectangle">
                    <use fill="#F5F5DC" fill-rule="evenodd" xlink:href="#path-30"></use>
                    <rect stroke="#9B9B89" stroke-width="2" x="83" y="128" width="273" height="1748" rx="6"></rect>
                </g>
                <g id="Rectangle-2">
                    <use fill="#F5F5DC" fill-rule="evenodd" xlink:href="#path-31"></use>
                    <rect stroke="#9B9B89" stroke-width="2" x="31" y="1828" width="378" height="98" rx="49"></rect>
                </g>
                <g id="Rectangle-2">
                    <use fill="#F5F5DC" fill-rule="evenodd" xlink:href="#path-32"></use>
                    <rect stroke="#9B9B89" stroke-width="2" x="31" y="51" width="378" height="98" rx="49"></rect>
                </g>
                <g id="Rectangle-2">
                    <use fill="#F5F5DC" fill-rule="evenodd" xlink:href="#path-33"></use>
                    <rect stroke="#9B9B89" stroke-width="2" x="1" y="1" width="438" height="98" rx="49"></rect>
                </g>
                <g id="Rectangle-2">
                    <use fill="#F5F5DC" fill-rule="evenodd" xlink:href="#path-34"></use>
                    <rect stroke="#9B9B89" stroke-width="2" x="1" y="1878" width="438" height="98" rx="49"></rect>
                </g>
                <path d="M112,149 L112,1827" id="Line" stroke="#9B9B89" stroke-width="2" stroke-linecap="square"></path>
                <path d="M332,149 L332,1827" id="Line" stroke="#9B9B89" stroke-width="2" stroke-linecap="square"></path>
                <path d="M219.5,149 L219.5,1827" id="Line" stroke="#9B9B89" stroke-width="2" stroke-linecap="square"></path>
                <path d="M288.25,149 L288.25,1827" id="Line" stroke="#9B9B89" stroke-width="2" stroke-linecap="square"></path>
                <path d="M155.75,149 L155.75,1827" id="Line" stroke="#9B9B89" stroke-width="2" stroke-linecap="square"></path>
            </g>
            <mask id="mask-36" fill="white">
                <use xlink:href="#path-35"></use>
            </mask>
            <use id="Oval" stroke="#9B9B89" stroke-width="2" fill="#F5F5DC" xlink:href="#path-35"></use>
            <mask id="mask-38" fill="white">
                <use xlink:href="#path-37"></use>
            </mask>
            <g id="Rectangle-3">
                <use fill="#F5F5DC" fill-rule="evenodd" xlink:href="#path-37"></use>
                <rect stroke="#9B9B89" stroke-width="2" x="737" y="631" width="3050" height="398" rx="19"></rect>
            </g>
            <mask id="mask-40" fill="white">
                <use xlink:href="#path-39"></use>
            </mask>
            <g id="Rectangle-4">
                <use fill="#F5F5DC" fill-rule="evenodd" xlink:href="#path-39"></use>
                <rect stroke="#9B9B89" stroke-width="2" x="633" y="932" width="3248" height="98" rx="9"></rect>
            </g>
        </g>
    </g>
</svg>
