<?xml version="1.0" encoding="UTF-8"?>
<svg width="156px" height="135px" viewBox="0 0 156 135" version="1.1" xmlns="http://www.w3.org/2000/svg" xmlns:xlink="http://www.w3.org/1999/xlink">
    <!-- Generator: Sketch 49.3 (51167) - http://www.bohemiancoding.com/sketch -->
    <desc>Created with Sketch.</desc>
    <defs>
        <path d="M29.7944336,35.3002465 L64.2563477,48.0502465 C67.4284793,49.2238516 70,53.5339853 70,57.6771997 L70,102.688918 C70,106.832133 67.4284793,109.203187 64.2563477,107.984817 L29.7944336,94.7484887 C26.622302,93.5301184 24.0507812,89.2199846 24.0507812,85.1215356 L24.0507812,40.596145 C24.0507812,36.4976959 26.622302,34.1266414 29.7944336,35.3002465 Z" id="path-1"></path>
        <path d="M118.863672,41.0584615 L118.949201,89.1862727 C118.957073,93.6166253 116.388469,98.0023125 113.212063,98.9774549 L78.7037098,109.252677 C75.5273036,110.169151 72.9737569,107.43258 73.0002036,103.144692 L73.2875196,56.5499068 C73.3139663,52.2599313 75.8825703,47.9277882 79.0246571,46.8695728 L113.160166,35.0613246 C116.302253,33.9457016 118.855799,36.6287287 118.863672,41.0584615 Z" id="path-2"></path>
        <path d="M33.5443318,29.108154 L66.7408613,17.8624549 C69.8615314,16.8052927 74.482059,16.7062923 77.0610984,17.6413313 L110.333167,29.7042267 C112.912206,30.6392657 112.473128,32.254264 109.352458,33.3114262 L76.1559284,44.5571252 C73.0352582,45.6142875 68.4147307,45.7132879 65.8356913,44.7782488 L32.5636227,32.7153534 C29.9845832,31.7803144 30.4236616,30.1653162 33.5443318,29.108154 Z" id="path-3"></path>
    </defs>
    <g id="Page-1" stroke="none" stroke-width="1" fill="none" fill-rule="evenodd">
        <g id="Artboard">
            <g id="Rectangle">
                <use fill="#ED3535" fill-rule="evenodd" xlink:href="#path-1"></use>
                <path stroke="#ED3535" stroke-width="1" d="M29.62094,35.7691815 C26.8121994,34.7300214 24.5507812,36.8151478 24.5507812,40.596145 L24.5507812,85.1215356 C24.5507812,89.0244188 27.0077497,93.1425511 29.9737077,94.2817331 L64.4356218,107.518061 C67.2415812,108.59579 69.5,106.513429 69.5,102.688918 L69.5,57.6771997 C69.5,53.7308028 67.0443321,49.6148503 64.0828541,48.5191815 L29.62094,35.7691815 Z"></path>
            </g>
            <g id="Rectangle">
                <use fill="#ED3535" fill-rule="evenodd" xlink:href="#path-2"></use>
                <path stroke="#ED3535" stroke-width="1" d="M118.363673,41.0593501 C118.356342,36.9346594 116.089616,34.5517811 113.323624,35.5338514 L79.1842432,47.3434211 C76.2634208,48.3271175 73.8127324,52.4616329 73.7875101,56.5529898 L73.5001941,103.147776 C73.4755838,107.137923 75.7576002,109.582309 78.5610208,108.77347 L113.065325,98.4994719 C116.007727,97.5961677 118.456716,93.4160466 118.449201,89.1871613 L118.363673,41.05935 Z"></path>
            </g>
            <g id="Rectangle-2">
                <use fill="#ED3535" fill-rule="evenodd" xlink:href="#path-3"></use>
                <path stroke="#ED3535" stroke-width="1" d="M33.7047572,29.5817188 C30.9656164,30.5096337 30.6947454,31.505939 32.7340444,32.2452934 L66.006113,44.3081888 C68.4727089,45.2024611 72.9775078,45.1059403 75.9955029,44.0835604 L109.192032,32.8378613 C111.931173,31.9099464 112.202044,30.9136411 110.162745,30.1742867 L76.8906767,18.1113913 C74.4240808,17.2171191 69.9192818,17.3136398 66.9012867,18.3360198 L33.7047572,29.5817188 Z"></path>
            </g>
            <path d="M82.0000067,66.3221215 C82.0041567,63.1106313 83.9221328,59.902369 86.2839263,59.1562669 C88.6457198,58.4101648 90.5608798,60.4075208 90.561556,63.6174863 C90.5622322,66.8274518 88.644256,70.0357142 86.2776364,70.7833409 C83.9110168,71.5309676 81.9958567,69.5336116 82.0000067,66.3221215 Z" id="Oval" stroke="#FFFFFF" fill="#FFFFFF"></path>
            <path d="M101.000074,85.3351243 C101.013876,82.1205849 102.94848,78.9070698 105.321132,78.1575374 C107.693785,77.4080049 109.609923,79.4050519 109.600947,82.6180666 C109.591971,85.8310814 107.657367,89.0445965 105.279888,89.7956536 C102.90241,90.5467107 100.986272,88.5496637 101.000074,85.3351243 Z" id="Oval" stroke="#FFFFFF" fill="#FFFFFF"></path>
            <path d="M36.8513515,61.3955637 C39.2923505,62.2888823 41.2711713,60.5105914 41.2711713,57.4236398 C41.2711713,54.3366882 39.2923505,51.1151449 36.8513515,50.2281213 C34.4103524,49.3410978 32.4315316,51.1193887 32.4315316,54.2000452 C32.4315316,57.2807016 34.4103524,60.502245 36.8513515,61.3955637 Z" id="Oval" stroke="#FFFFFF" fill="#FFFFFF"></path>
            <path d="M55.7405406,68.4458621 C58.1815397,69.3391807 60.1603604,67.5494076 60.1603604,64.448292 C60.1603604,61.3471764 58.1815397,58.1141509 55.7405406,57.2271273 C53.2995415,56.3401038 51.3207208,58.1298769 51.3207208,61.2246974 C51.3207208,64.3195179 53.2995415,67.5525434 55.7405406,68.4458621 Z" id="Oval" stroke="#FFFFFF" fill="#FFFFFF"></path>
            <path d="M37.8513515,83.4019244 C40.2923505,84.3078333 42.2711713,82.5397488 42.2711713,79.4527972 C42.2711713,76.3658456 40.2923505,73.1340958 37.8513515,72.2344821 C35.4103524,71.3348683 33.4315316,73.1029528 33.4315316,76.1836093 C33.4315316,79.2642658 35.4103524,82.4960155 37.8513515,83.4019244 Z" id="Oval" stroke="#FFFFFF" fill="#FFFFFF"></path>
            <path d="M55.7405406,91.4521962 C58.1815397,92.3581051 60.1603604,90.5785384 60.1603604,87.4774228 C60.1603604,84.3763072 58.1815397,81.1330752 55.7405406,80.2334615 C53.2995415,79.3338477 51.3207208,81.1134144 51.3207208,84.2082349 C51.3207208,87.3030554 53.2995415,90.5462873 55.7405406,91.4521962 Z" id="Oval" stroke="#FFFFFF" fill="#FFFFFF"></path>
            <path d="M68.0655437,27.651348 C70.5418628,26.1784174 74.2254386,25.6486453 76.2930406,26.468069 C78.3606425,27.2874927 78.0327369,29.1471704 75.5606428,30.6217755 C73.0885487,32.0963806 69.4049729,32.6261528 67.3331459,31.8050547 C65.261319,30.9839566 65.5892246,29.1242787 68.0655437,27.651348 Z" id="Oval" stroke="#FFFFFF" fill="#FFFFFF" transform="translate(71.811530, 29.137108) rotate(6.000000) translate(-71.811530, -29.137108) "></path>
        </g>
    </g>
</svg>
